<svg xmlns="http://www.w3.org/2000/svg" width="121.129" height="25.5" viewBox="0 0 121.129 25.5"><defs><style>.a{fill:#00a78e;}</style></defs><g transform="translate(-103.275 -130.609)"><path class="a" d="M250.965,130.609v12.858a5.839,5.839,0,0,1,5.826-4.688c3.616,0,5.29,2.545,5.29,5.792v7.468c0,2.21.1,2.645,1.573,3.582v.067h-9.107v-.067c1.44-.938,1.54-1.373,1.54-3.582V144.4c0-1.54-.669-2.779-2.243-2.779-1.674,0-2.879,1.406-2.879,4.419v5.994c0,2.21.1,2.645,1.573,3.582v.067H243.43v-.067c1.44-.938,1.541-1.373,1.541-3.582V134.326c0-2.244-.4-2.88-1.976-3.65v-.067Z" transform="translate(-39.25 0)"/><path class="a" d="M130.75,137.061c0-2.21-.368-3.014-1.842-3.984v-.068h9.978v.068c-1.473.971-1.842,1.775-1.842,3.984v6.764h9.677v-6.764c0-2.21-.334-3.014-1.842-3.984v-.068h10.012v.068c-1.506.971-1.842,1.775-1.842,3.984v15.3c0,2.21.335,3.047,1.842,4.018v.067H144.879v-.067c1.507-.971,1.842-1.808,1.842-4.018v-7.534h-9.677v7.534c0,2.21.368,3.047,1.842,4.018v.067h-9.978v-.067c1.473-.971,1.842-1.808,1.842-4.018Z" transform="translate(-7.201 -0.674)"/><path class="a" d="M181,149.958H170.357c0,4.153,2.176,6.63,5.39,6.63a5.14,5.14,0,0,0,4.855-2.98l.234.1c-.971,3.582-3.984,5.625-7.8,5.625-4.788,0-8.74-3.147-8.74-8.606a8.443,8.443,0,0,1,8.773-8.638c5.391,0,7.936,3.449,7.936,7.868m-5.759-.7c0-3.751-.268-6.6-2.177-6.6-1.741,0-2.612,2.645-2.679,6.6Z" transform="translate(-17.142 -3.225)"/><path class="a" d="M207.054,157.76A5.637,5.637,0,0,1,203,159.3c-2.712,0-4.085-1.172-4.386-2.98,0-.134-.067-.7-.067-.871-.536,2.244-2.545,3.784-5.391,3.784-2.612,0-4.955-1.34-4.955-4.186,0-3.784,3.716-4.52,7.734-5.256l2.545-.47v-3.247c0-1.708-.636-3.382-2.545-3.382a2.3,2.3,0,0,0-2.377,2.545c0,1.34.569,2.042,1.607,2.042a2.306,2.306,0,0,0,.636-.1,3.76,3.76,0,0,1-3.583,1.975,2.9,2.9,0,0,1-3.18-2.813c0-2.578,2.879-4.252,7.065-4.252,5.491,0,8.337,1.674,8.337,5.859,0,2.043-.067,4.086-.067,6.5,0,2.177.268,3.382,1.908,3.382a2.069,2.069,0,0,0,.77-.134Zm-9.978-7.5c-2.143.435-3.047,1.707-3.047,3.884,0,1.708.669,2.779,1.942,2.779,1.573,0,2.477-1.54,2.477-3.449l.034-3.549Z" transform="translate(-23.858 -3.225)"/><path class="a" d="M221.671,152.157c0,2.21.1,2.645,1.573,3.583v.066h-9.107v-.066c1.44-.938,1.54-1.373,1.54-3.583V134.445c0-2.244-.4-2.88-1.976-3.65v-.067h7.97Z" transform="translate(-31.021 -0.033)"/><path class="a" d="M239.266,150.826c-.435,3.214-1.976,6.362-6.06,6.362-3.081,0-5.358-1.808-5.324-5.659l.067-10.413h-1.808v-.369a9.72,9.72,0,0,0,7.4-6.295h.335v5.826H238.9l-.168.838h-4.855v10.547c0,1.708.669,2.679,2.009,2.679,1.54,0,2.545-1.34,2.98-3.65Z" transform="translate(-34.516 -1.08)"/><path class="a" d="M116.725,139.772a6.147,6.147,0,0,0,.695-2.055,2.174,2.174,0,1,0-4.349,0,6.152,6.152,0,0,0,.7,2.055H103.275v.39c1.128.992,1.437,1.54,2.531,3.627l7.047,13.581h.068l6.876-13.513c1.1-2.121,1.54-2.771,2.669-3.7v-.39Zm-1.48-3.452a.972.972,0,1,1-.972.972.973.973,0,0,1,.972-.972m3.4,7.837-3.39,6.928-.023-.047-.023.047-3.39-6.928a4.045,4.045,0,0,1-.443-1.77,2.253,2.253,0,0,1,.84-1.833,1.777,1.777,0,0,1,1.26-.392,1.266,1.266,0,0,1,.833.675c.383.718.741,1.328.879,1.561a.071.071,0,0,0,.122,0c.141-.237.509-.863.9-1.6a1.24,1.24,0,0,1,.809-.633,1.576,1.576,0,0,1,1.046.25,2.256,2.256,0,0,1,1.023,1.969,4.045,4.045,0,0,1-.443,1.77" transform="translate(0 -1.386)"/></g></svg>